<svg width="45" height="44" viewBox="0 0 45 44" fill="none" xmlns="http://www.w3.org/2000/svg">
<mask id="mask0_1920_9413" style="mask-type:alpha" maskUnits="userSpaceOnUse" x="10" y="10" width="25" height="24">
<rect x="10.5" y="10" width="24" height="24" fill="#D9D9D9"/>
</mask>
<g mask="url(#mask0_1920_9413)">
<path d="M17.5 16V15C17.5 14.45 17.6958 13.9792 18.0875 13.5875C18.4792 13.1958 18.95 13 19.5 13H25.5C26.05 13 26.5208 13.1958 26.9125 13.5875C27.3042 13.9792 27.5 14.45 27.5 15V16H28.2C28.6 16 28.9625 16.1125 29.2875 16.3375C29.6125 16.5625 29.85 16.85 30 17.2L32.35 22.6C32.4 22.7333 32.4375 22.8667 32.4625 23C32.4875 23.1333 32.5 23.2667 32.5 23.4V28C32.5 28.55 32.3042 29.0208 31.9125 29.4125C31.5208 29.8042 31.05 30 30.5 30H14.5C13.95 30 13.4792 29.8042 13.0875 29.4125C12.6958 29.0208 12.5 28.55 12.5 28V23.4C12.5 23.2667 12.5125 23.1333 12.5375 23C12.5625 22.8667 12.6 22.7333 12.65 22.6L15 17.2C15.15 16.85 15.3875 16.5625 15.7125 16.3375C16.0375 16.1125 16.4 16 16.8 16H17.5ZM19.5 16H25.5V15H19.5V16ZM17.5 22V21H19.5V22H25.5V21H27.5V22H29.9L28.2 18H16.8L15.1 22H17.5ZM17.5 24H14.5V28H30.5V24H27.5V25H25.5V24H19.5V25H17.5V24Z" fill="#3B82F6"/>
</g>
</svg>
