<svg width="32" height="32" viewBox="0 0 32 32" fill="none" xmlns="http://www.w3.org/2000/svg">
<mask id="mask0_524_2600" style="mask-type:alpha" maskUnits="userSpaceOnUse" x="0" y="0" width="32" height="32">
<rect width="32" height="32" fill="#D9D9D9"/>
</mask>
<g mask="url(#mask0_524_2600)">
<path d="M7.5 29.3333C6.52778 29.3333 5.70144 28.993 5.021 28.3123C4.34033 27.6319 4 26.8055 4 25.8333V21.3333H8V2.66666H28V25.8333C28 26.8055 27.6598 27.6319 26.9793 28.3123C26.2987 28.993 25.4722 29.3333 24.5 29.3333H7.5ZM24.497 27.3333C24.9212 27.3333 25.2778 27.1895 25.5667 26.902C25.8556 26.6144 26 26.2582 26 25.8333V4.66666H10V21.3333H23V25.8333C23 26.2582 23.1434 26.6144 23.4303 26.902C23.7172 27.1895 24.0728 27.3333 24.497 27.3333ZM12 10.6667V8.66666H24V10.6667H12ZM12 14.6667V12.6667H24V14.6667H12ZM7.46667 27.3333H21V23.3333H6V25.8333C6 26.2582 6.14444 26.6144 6.43333 26.902C6.72222 27.1895 7.06667 27.3333 7.46667 27.3333ZM7.46667 27.3333H6H21H7.46667Z" fill="#EFF6FF"/>
</g>
</svg>
