<svg width="45" height="44" viewBox="0 0 45 44" fill="none" xmlns="http://www.w3.org/2000/svg">
<mask id="mask0_1920_901" style="mask-type:alpha" maskUnits="userSpaceOnUse" x="10" y="10" width="25" height="24">
<rect x="10.5" y="10" width="24" height="24" fill="#D9D9D9"/>
</mask>
<g mask="url(#mask0_1920_901)">
<path d="M16.35 22L16.05 20.5C15.85 20.4167 15.6625 20.3292 15.4875 20.2375C15.3125 20.1458 15.1333 20.0333 14.95 19.9L13.5 20.35L12.5 18.65L13.65 17.65C13.6167 17.4333 13.6 17.2167 13.6 17C13.6 16.7833 13.6167 16.5667 13.65 16.35L12.5 15.35L13.5 13.65L14.95 14.1C15.1333 13.9667 15.3125 13.8542 15.4875 13.7625C15.6625 13.6708 15.85 13.5833 16.05 13.5L16.35 12H18.35L18.65 13.5C18.85 13.5833 19.0375 13.6708 19.2125 13.7625C19.3875 13.8542 19.5667 13.9667 19.75 14.1L21.2 13.65L22.2 15.35L21.05 16.35C21.0833 16.5667 21.1 16.7833 21.1 17C21.1 17.2167 21.0833 17.4333 21.05 17.65L22.2 18.65L21.2 20.35L19.75 19.9C19.5667 20.0333 19.3875 20.1458 19.2125 20.2375C19.0375 20.3292 18.85 20.4167 18.65 20.5L18.35 22H16.35ZM17.35 19C17.9 19 18.3708 18.8042 18.7625 18.4125C19.1542 18.0208 19.35 17.55 19.35 17C19.35 16.45 19.1542 15.9792 18.7625 15.5875C18.3708 15.1958 17.9 15 17.35 15C16.8 15 16.3292 15.1958 15.9375 15.5875C15.5458 15.9792 15.35 16.45 15.35 17C15.35 17.55 15.5458 18.0208 15.9375 18.4125C16.3292 18.8042 16.8 19 17.35 19ZM25.3 33L24.85 30.9C24.5667 30.8 24.3042 30.6792 24.0625 30.5375C23.8208 30.3958 23.5833 30.2333 23.35 30.05L21.35 30.7L19.95 28.3L21.55 26.9C21.5167 26.6 21.5 26.3 21.5 26C21.5 25.7 21.5167 25.4 21.55 25.1L19.95 23.7L21.35 21.3L23.35 21.95C23.5833 21.7667 23.8208 21.6042 24.0625 21.4625C24.3042 21.3208 24.5667 21.2 24.85 21.1L25.3 19H28.1L28.55 21.1C28.8333 21.2 29.0958 21.3208 29.3375 21.4625C29.5792 21.6042 29.8167 21.7667 30.05 21.95L32.05 21.3L33.45 23.7L31.85 25.1C31.8833 25.4 31.9 25.7 31.9 26C31.9 26.3 31.8833 26.6 31.85 26.9L33.45 28.3L32.05 30.7L30.05 30.05C29.8167 30.2333 29.5792 30.3958 29.3375 30.5375C29.0958 30.6792 28.8333 30.8 28.55 30.9L28.1 33H25.3ZM26.7 29C27.5333 29 28.2417 28.7083 28.825 28.125C29.4083 27.5417 29.7 26.8333 29.7 26C29.7 25.1667 29.4083 24.4583 28.825 23.875C28.2417 23.2917 27.5333 23 26.7 23C25.8667 23 25.1583 23.2917 24.575 23.875C23.9917 24.4583 23.7 25.1667 23.7 26C23.7 26.8333 23.9917 27.5417 24.575 28.125C25.1583 28.7083 25.8667 29 26.7 29Z" fill="#3B82F6"/>
</g>
</svg>
