<svg width="45" height="44" viewBox="0 0 45 44" fill="none" xmlns="http://www.w3.org/2000/svg">
<mask id="mask0_1920_502" style="mask-type:alpha" maskUnits="userSpaceOnUse" x="10" y="10" width="25" height="24">
<rect x="10.5" y="10" width="24" height="24" fill="#D9D9D9"/>
</mask>
<g mask="url(#mask0_1920_502)">
<path d="M12.5 32L14.5 22H30.5L32.5 32H12.5ZM13.5 14V12H16.5V14H13.5ZM14.95 30H21.5V28H15.35L14.95 30ZM16.625 19.325L15.2 17.925L17.325 15.8L18.75 17.2L16.625 19.325ZM15.75 26H21.5V24H16.15L15.75 26ZM22.5 17C21.1167 17 19.9375 16.5125 18.9625 15.5375C17.9875 14.5625 17.5 13.3833 17.5 12H19.5C19.5 12.8333 19.7917 13.5417 20.375 14.125C20.9583 14.7083 21.6667 15 22.5 15C23.3333 15 24.0417 14.7083 24.625 14.125C25.2083 13.5417 25.5 12.8333 25.5 12H27.5C27.5 13.3833 27.0125 14.5625 26.0375 15.5375C25.0625 16.5125 23.8833 17 22.5 17ZM21.5 21V18H23.5V21H21.5ZM23.5 30H30.05L29.65 28H23.5V30ZM23.5 26H29.25L28.85 24H23.5V26ZM28.375 19.325L26.275 17.2L27.675 15.8L29.8 17.9L28.375 19.325ZM28.5 14V12H31.5V14H28.5Z" fill="#3B82F6"/>
</g>
</svg>
