<svg width="48" height="48" viewBox="0 0 48 48" fill="none" xmlns="http://www.w3.org/2000/svg">
<rect width="48" height="48" rx="24" fill="#DBEAFE"/>
<mask id="mask0_524_2865" style="mask-type:alpha" maskUnits="userSpaceOnUse" x="12" y="12" width="24" height="24">
<rect x="12" y="12" width="24" height="24" fill="#D9D9D9"/>
</mask>
<g mask="url(#mask0_524_2865)">
<path d="M21.675 25.7L22.55 22.85L20.25 21H23.1L24 18.2L24.9 21H27.75L25.425 22.85L26.3 25.7L24 23.925L21.675 25.7ZM18 35V27.275C17.3667 26.575 16.875 25.775 16.525 24.875C16.175 23.975 16 23.0167 16 22C16 19.7667 16.775 17.875 18.325 16.325C19.875 14.775 21.7667 14 24 14C26.2333 14 28.125 14.775 29.675 16.325C31.225 17.875 32 19.7667 32 22C32 23.0167 31.825 23.975 31.475 24.875C31.125 25.775 30.6333 26.575 30 27.275V35L24 33L18 35ZM24 28C25.6667 28 27.0833 27.4167 28.25 26.25C29.4167 25.0833 30 23.6667 30 22C30 20.3333 29.4167 18.9167 28.25 17.75C27.0833 16.5833 25.6667 16 24 16C22.3333 16 20.9167 16.5833 19.75 17.75C18.5833 18.9167 18 20.3333 18 22C18 23.6667 18.5833 25.0833 19.75 26.25C20.9167 27.4167 22.3333 28 24 28Z" fill="#3B82F6"/>
</g>
</svg>
