<svg width="49" height="48" viewBox="0 0 49 48" fill="none" xmlns="http://www.w3.org/2000/svg">
<rect x="0.5" width="48" height="48" rx="24" fill="#DBEAFE"/>
<mask id="mask0_524_2886" style="mask-type:alpha" maskUnits="userSpaceOnUse" x="12" y="12" width="25" height="24">
<rect x="12.5" y="12" width="24" height="24" fill="#D9D9D9"/>
</mask>
<g mask="url(#mask0_524_2886)">
<path d="M21.1 34.5L19.2 31.3L15.6 30.5L15.95 26.8L13.5 24L15.95 21.2L15.6 17.5L19.2 16.7L21.1 13.5L24.5 14.95L27.9 13.5L29.8 16.7L33.4 17.5L33.05 21.2L35.5 24L33.05 26.8L33.4 30.5L29.8 31.3L27.9 34.5L24.5 33.05L21.1 34.5ZM24.5 29C24.7833 29 25.0208 28.9042 25.2125 28.7125C25.4042 28.5208 25.5 28.2833 25.5 28C25.5 27.7167 25.4042 27.4792 25.2125 27.2875C25.0208 27.0958 24.7833 27 24.5 27C24.2167 27 23.9792 27.0958 23.7875 27.2875C23.5958 27.4792 23.5 27.7167 23.5 28C23.5 28.2833 23.5958 28.5208 23.7875 28.7125C23.9792 28.9042 24.2167 29 24.5 29ZM23.5 25H25.5V19H23.5V25Z" fill="#3B82F6"/>
</g>
</svg>
