<svg width="49" height="48" viewBox="0 0 49 48" fill="none" xmlns="http://www.w3.org/2000/svg">
<rect x="0.5" width="48" height="48" rx="24" fill="#DBEAFE"/>
<mask id="mask0_524_2872" style="mask-type:alpha" maskUnits="userSpaceOnUse" x="12" y="12" width="25" height="24">
<rect x="12.5" y="12" width="24" height="24" fill="#D9D9D9"/>
</mask>
<g mask="url(#mask0_524_2872)">
<path d="M16.5 26C15.95 26 15.4792 25.8042 15.0875 25.4125C14.6958 25.0208 14.5 24.55 14.5 24V15C14.5 14.45 14.6958 13.9792 15.0875 13.5875C15.4792 13.1958 15.95 13 16.5 13H32.5C33.05 13 33.5208 13.1958 33.9125 13.5875C34.3042 13.9792 34.5 14.45 34.5 15V24C34.5 24.55 34.3042 25.0208 33.9125 25.4125C33.5208 25.8042 33.05 26 32.5 26H29.275C29.375 25.6667 29.4417 25.3333 29.475 25C29.5083 24.6667 29.5083 24.3333 29.475 24C29.3417 22.7333 28.8042 21.6667 27.8625 20.8C26.9208 19.9333 25.8 19.5 24.5 19.5C23.2 19.5 22.0792 19.9333 21.1375 20.8C20.1958 21.6667 19.6583 22.7333 19.525 24C19.4917 24.3333 19.4917 24.6667 19.525 25C19.5583 25.3333 19.625 25.6667 19.725 26H16.5ZM19.5 20.5L21.5 18.5L19.5 16.5L17.5 18.5L19.5 20.5ZM29 19C29.4167 19 29.7708 18.8542 30.0625 18.5625C30.3542 18.2708 30.5 17.9167 30.5 17.5C30.5 17.0833 30.3542 16.7292 30.0625 16.4375C29.7708 16.1458 29.4167 16 29 16C28.5833 16 28.2292 16.1458 27.9375 16.4375C27.6458 16.7292 27.5 17.0833 27.5 17.5C27.5 17.9167 27.6458 18.2708 27.9375 18.5625C28.2292 18.8542 28.5833 19 29 19ZM17.5 35V32.9C17.5 32.3167 17.6625 31.775 17.9875 31.275C18.3125 30.775 18.7417 30.4 19.275 30.15C20.0917 29.7667 20.9417 29.4792 21.825 29.2875C22.7083 29.0958 23.6 29 24.5 29C25.4 29 26.2917 29.0958 27.175 29.2875C28.0583 29.4792 28.9083 29.7667 29.725 30.15C30.2583 30.4 30.6875 30.775 31.0125 31.275C31.3375 31.775 31.5 32.3167 31.5 32.9V35H17.5ZM24.5 28C23.5333 28 22.7083 27.6583 22.025 26.975C21.3417 26.2917 21 25.4667 21 24.5C21 23.5333 21.3417 22.7083 22.025 22.025C22.7083 21.3417 23.5333 21 24.5 21C25.4667 21 26.2917 21.3417 26.975 22.025C27.6583 22.7083 28 23.5333 28 24.5C28 25.4667 27.6583 26.2917 26.975 26.975C26.2917 27.6583 25.4667 28 24.5 28Z" fill="#3B82F6"/>
</g>
</svg>
