<svg width="48" height="48" viewBox="0 0 48 48" fill="none" xmlns="http://www.w3.org/2000/svg">
<rect width="48" height="48" rx="24" fill="#DBEAFE"/>
<mask id="mask0_524_2879" style="mask-type:alpha" maskUnits="userSpaceOnUse" x="12" y="12" width="24" height="24">
<rect x="12" y="12" width="24" height="24" fill="#D9D9D9"/>
</mask>
<g mask="url(#mask0_524_2879)">
<path d="M30.85 33.975C30.7167 33.975 30.5917 33.9542 30.475 33.9125C30.3583 33.8708 30.25 33.8 30.15 33.7L25.05 28.6C24.95 28.5 24.8792 28.3917 24.8375 28.275C24.7958 28.1583 24.775 28.0333 24.775 27.9C24.775 27.7667 24.7958 27.6417 24.8375 27.525C24.8792 27.4083 24.95 27.3 25.05 27.2L27.175 25.075C27.275 24.975 27.3833 24.9042 27.5 24.8625C27.6167 24.8208 27.7417 24.8 27.875 24.8C28.0083 24.8 28.1333 24.8208 28.25 24.8625C28.3667 24.9042 28.475 24.975 28.575 25.075L33.675 30.175C33.775 30.275 33.8458 30.3833 33.8875 30.5C33.9292 30.6167 33.95 30.7417 33.95 30.875C33.95 31.0083 33.9292 31.1333 33.8875 31.25C33.8458 31.3667 33.775 31.475 33.675 31.575L31.55 33.7C31.45 33.8 31.3417 33.8708 31.225 33.9125C31.1083 33.9542 30.9833 33.975 30.85 33.975ZM17.125 34C16.9917 34 16.8625 33.975 16.7375 33.925C16.6125 33.875 16.5 33.8 16.4 33.7L14.3 31.6C14.2 31.5 14.125 31.3875 14.075 31.2625C14.025 31.1375 14 31.0083 14 30.875C14 30.7417 14.025 30.6167 14.075 30.5C14.125 30.3833 14.2 30.275 14.3 30.175L19.6 24.875H21.725L22.575 24.025L18.45 19.9H17.025L14 16.875L16.825 14.05L19.85 17.075V18.5L23.975 22.625L26.875 19.725L25.8 18.65L27.2 17.25H24.375L23.675 16.55L27.225 13L27.925 13.7V16.525L29.325 15.125L32.875 18.675C33.1583 18.9583 33.375 19.2792 33.525 19.6375C33.675 19.9958 33.75 20.375 33.75 20.775C33.75 21.175 33.675 21.5583 33.525 21.925C33.375 22.2917 33.1583 22.6167 32.875 22.9L30.75 20.775L29.35 22.175L28.3 21.125L23.125 26.3V28.4L17.825 33.7C17.725 33.8 17.6167 33.875 17.5 33.925C17.3833 33.975 17.2583 34 17.125 34Z" fill="#3B82F6"/>
</g>
</svg>
